<?xml version="1.0" encoding="UTF-8" standalone="no"?>
<svg
   id="svg4306"
   width="22"
   height="22"
   version="1.1"
   style="enable-background:new"
   sodipodi:docname="restore.svg"
   inkscape:version="1.4.3 (0d15f75042, 2025-12-25)"
   xmlns:inkscape="http://www.inkscape.org/namespaces/inkscape"
   xmlns:sodipodi="http://sodipodi.sourceforge.net/DTD/sodipodi-0.dtd"
   xmlns="http://www.w3.org/2000/svg"
   xmlns:svg="http://www.w3.org/2000/svg"
   xmlns:rdf="http://www.w3.org/1999/02/22-rdf-syntax-ns#"
   xmlns:cc="http://creativecommons.org/ns#"
   xmlns:dc="http://purl.org/dc/elements/1.1/">
  <metadata
     id="metadata28">
    <rdf:RDF>
      <cc:Work
         rdf:about="">
        <dc:format>image/svg+xml</dc:format>
        <dc:type
           rdf:resource="http://purl.org/dc/dcmitype/StillImage" />
      </cc:Work>
    </rdf:RDF>
  </metadata>
  <defs
     id="defs26" />
  <sodipodi:namedview
     inkscape:document-rotation="0"
     pagecolor="#ffffff"
     bordercolor="#030303"
     borderopacity="1"
     objecttolerance="10"
     gridtolerance="10"
     guidetolerance="10"
     inkscape:pageopacity="0"
     inkscape:pageshadow="2"
     inkscape:window-width="1920"
     inkscape:window-height="1046"
     id="namedview24"
     showgrid="false"
     inkscape:zoom="16.530659"
     inkscape:cx="-11.16108"
     inkscape:cy="7.8641755"
     inkscape:window-x="0"
     inkscape:window-y="0"
     inkscape:window-maximized="1"
     inkscape:current-layer="active-center"
     inkscape:snap-bbox="true"
     inkscape:bbox-nodes="true"
     inkscape:lockguides="false"
     inkscape:pagecheckerboard="0"
     inkscape:showpageshadow="2"
     inkscape:deskcolor="#cccccc">
    <inkscape:grid
       id="grid1"
       units="px"
       originx="27"
       originy="-1.0924911e-08"
       spacingx="1"
       spacingy="1"
       empcolor="#0099e5"
       empopacity="0.30196078"
       color="#0099e5"
       opacity="0.14901961"
       empspacing="5"
       dotted="false"
       gridanglex="30"
       gridanglez="30"
       visible="false" />
  </sodipodi:namedview>
  <style
     type="text/css"
     id="current-color-scheme" />
  <g
     id="active-center"
     transform="translate(-26,0.16000006)">
    <path
       id="path839-3-36"
       style="opacity:0.01;fill:#2b4254;fill-opacity:0.01;stroke-width:1.125;enable-background:new"
       d="m 11,1.8399999 c -4.97047,0 -9,4.029441 -9,8.9999981 0,4.970559 4.02953,9.000002 9,9.000002 4.970481,0 9.000001,-4.029443 9.000001,-9.000002 0,-4.9705571 -4.02952,-8.9999981 -9.000001,-8.9999981 z m 0,1.125 c 4.349191,0 7.875001,3.525746 7.875001,7.8749981 0,4.349234 -3.52581,7.875002 -7.875001,7.875002 -4.3492,0 -7.875,-3.525768 -7.875,-7.875002 0,-4.3492521 3.5258,-7.8749981 7.875,-7.8749981 z m 0,0 z"
       sodipodi:nodetypes="ssssssssssccccc" />
    <rect
       style="opacity:0.01;fill:#4e5a7e;fill-opacity:0.01;stroke:none;stroke-width:0.39374;enable-background:new"
       id="center-3-35-5-7"
       width="15.749992"
       height="15.749992"
       x="3.1250012"
       y="3.1250002"
       ry="7.8749838"
       rx="7.8749838" />
    <path
       id="path4-3-3-5-2-3"
       style="fill:#ffffff;fill-opacity:1;stroke-width:0.1385;enable-background:new"
       d="M 10.993828,5.2205215 A 0.41550783,0.41550784 0 0 0 10.701344,5.3415493 L 5.507237,10.535657 a 0.41550783,0.41550784 0 0 0 -0.1109421,0.295846 0.41550783,0.41550784 0 0 0 0,0.02353 0.41550783,0.41550784 0 0 0 0.1210278,0.290803 l 5.1941073,5.192427 a 0.41550783,0.41550784 0 0 0 0.586649,0 l 5.194107,-5.192427 a 0.41550783,0.41550784 0 0 0 0.110942,-0.290803 0.41550783,0.41550784 0 0 0 -0.121027,-0.319379 L 11.287993,5.3415493 A 0.41550783,0.41550784 0 0 0 10.993828,5.2205215 Z m 0,1.0018409 4.622588,4.6225876 -4.612502,4.612503 -4.6225877,-4.622588 z" />
  </g>
  <g
     id="pressed-center"
     transform="translate(5.16,0.16000006)">
    <rect
       id="rect4266-3-6"
       width="22"
       height="22"
       x="21.84"
       y="-0.16000006"
       style="opacity:0.00100002;fill:#000000;fill-opacity:1;fill-rule:nonzero;stroke:none;stroke-width:2;stroke-linecap:round;stroke-linejoin:round;stroke-miterlimit:4;stroke-dasharray:none;stroke-opacity:1" />
    <rect
       style="fill:#00cccc;fill-opacity:1;stroke:none;stroke-width:0.44999;enable-background:new"
       id="center-3-35-5-7-2"
       width="18"
       height="18"
       x="24"
       y="2"
       ry="8.9999819"
       rx="8.9999819" />
    <path
       id="path4-3-3-5-2-3-9"
       style="fill:#000000;fill-opacity:1;stroke-width:0.160926;enable-background:new"
       d="m 32.993416,4.4993808 a 0.48278834,0.48278835 0 0 0 -0.341796,0.140625 l -5.919922,5.9218752 a 0.48278834,0.48278835 0 0 0 -0.0039,0.002 0.48278834,0.48278835 0 0 0 -0.238281,0.412109 0.48278834,0.48278835 0 0 0 0,0.04492 0.48278834,0.48278835 0 0 0 0.238281,0.400391 l 5.935547,5.9375 a 0.48278834,0.48278835 0 0 0 0.683594,0 l 5.923828,-5.923828 a 0.48278834,0.48278835 0 0 0 0.240235,-0.408203 0.48278834,0.48278835 0 0 0 0,-0.0039 0.48278834,0.48278835 0 0 0 -0.002,-0.04492 0.48278834,0.48278835 0 0 0 -0.236328,-0.400391 l -5.9375,-5.9375002 a 0.48278834,0.48278835 0 0 0 -0.341797,-0.140625 z m 0,1.1640625 5.341797,5.3417967 -5.330078,5.330078 -5.341797,-5.341796 z" />
    <path
       id="path839-3-36-6-9"
       style="fill:#009999;fill-opacity:1;stroke-width:1.25;enable-background:new"
       d="M 33,1 C 27.477256,1 23,5.477157 23,10.999998 23,16.522837 27.477256,21 33,21 38.522761,21 43.000001,16.522837 43.000001,10.999998 43.000001,5.477157 38.522761,1 33,1 Z m 0,1.25 c 4.832431,0 8.750001,3.917496 8.750001,8.749998 0,4.832477 -3.91757,8.750002 -8.750001,8.750002 -4.832444,0 -8.75,-3.917525 -8.75,-8.750002 C 24.25,6.167496 28.167556,2.25 33,2.25 Z m 0,0 z"
       sodipodi:nodetypes="ssssssssssccccc" />
  </g>
  <g
     id="hover-center"
     transform="translate(0,0.16000006)">
    <rect
       style="fill:#00b2b2;fill-opacity:1;stroke:none;stroke-width:0.44999;enable-background:new"
       id="center-3-35-5-7-5"
       width="18"
       height="18"
       x="2.0000007"
       y="2.0000019"
       ry="8.9999809"
       rx="8.9999809" />
    <path
       id="path4-3-3-5-2-3-3"
       style="fill:#000000;fill-opacity:1;stroke-width:0.160926;enable-background:new"
       d="m 10.993322,4.4890642 a 0.48278834,0.48278835 0 0 0 -0.339844,0.140625 L 4.6515251,10.631642 a 0.48278834,0.48278835 0 0 0 -0.03125,0.03125 l -0.00195,0.002 a 0.48278834,0.48278835 0 0 0 -0.00195,0.002 0.48278834,0.48278835 0 0 0 -0.037109,0.04687 0.48278834,0.48278835 0 0 0 -0.00586,0.0059 0.48278834,0.48278835 0 0 0 -0.025391,0.04102 0.48278834,0.48278835 0 0 0 -0.013672,0.02539 0.48278834,0.48278835 0 0 0 -0.015625,0.04297 0.48278834,0.48278835 0 0 0 -0.00391,0.0098 0.48278834,0.48278835 0 0 0 -0.015625,0.05664 0.48278834,0.48278835 0 0 0 -0.00195,0.0098 0.48278834,0.48278835 0 0 0 -0.00781,0.0625 0.48278834,0.48278835 0 0 0 0,0.05078 0.48278834,0.48278835 0 0 0 0.00195,0.02734 0.48278834,0.48278835 0 0 0 0.00781,0.04492 0.48278834,0.48278835 0 0 0 0.00195,0.01367 0.48278834,0.48278835 0 0 0 0.00195,0.0078 0.48278834,0.48278835 0 0 0 0.017578,0.05469 0.48278834,0.48278835 0 0 0 0.013672,0.03125 0.48278834,0.48278835 0 0 0 0.017578,0.0332 0.48278834,0.48278835 0 0 0 0.033203,0.05273 0.48278834,0.48278835 0 0 0 0.044922,0.05078 l 6.0351559,6.035156 a 0.48278834,0.48278835 0 0 0 0.681641,0 l 6.009765,-6.011719 0.02539,-0.02344 a 0.48278834,0.48278835 0 0 0 0.01758,-0.01953 0.48278834,0.48278835 0 0 0 0.002,-0.0039 0.48278834,0.48278835 0 0 0 0.002,-0.0039 0.48278834,0.48278835 0 0 0 0.0332,-0.04687 0.48278834,0.48278835 0 0 0 0.002,-0.002 0.48278834,0.48278835 0 0 0 0.01953,-0.03516 0.48278834,0.48278835 0 0 0 0,-0.002 0.48278834,0.48278835 0 0 0 0.02148,-0.04687 0.48278834,0.48278835 0 0 0 0.0059,-0.01367 0.48278834,0.48278835 0 0 0 0.0059,-0.01953 0.48278834,0.48278835 0 0 0 0.002,-0.0098 0.48278834,0.48278835 0 0 0 0.01172,-0.05274 0.48278834,0.48278835 0 0 0 0.0059,-0.06055 0.48278834,0.48278835 0 0 0 0,-0.0039 0.48278834,0.48278835 0 0 0 0,-0.01367 0.48278834,0.48278835 0 0 0 -0.0039,-0.04883 0.48278834,0.48278835 0 0 0 0,-0.002 0.48278834,0.48278835 0 0 0 -0.0098,-0.05469 0.48278834,0.48278835 0 0 0 -0.002,-0.0098 0.48278834,0.48278835 0 0 0 -0.01758,-0.05469 0.48278834,0.48278835 0 0 0 -0.002,-0.0059 0.48278834,0.48278835 0 0 0 -0.02734,-0.05664 0.48278834,0.48278835 0 0 0 0,-0.002 0.48278834,0.48278835 0 0 0 -0.03711,-0.05469 0.48278834,0.48278835 0 0 0 -0.04102,-0.04687 l -0.0039,-0.0039 -6.03125,-6.0312498 a 0.48278834,0.48278835 0 0 0 -0.341976,-0.140525 z m 0,1.1640625 5.353516,5.3535153 -5.341797,5.339843 -5.3535159,-5.351562 z" />
    <path
       id="path839-3-36-7-6"
       style="mix-blend-mode:normal;fill:#006666;fill-opacity:1;stroke-width:1.25;enable-background:new"
       d="M 11,1.000002 C 5.4772563,1.000002 1.0000002,5.477159 1.0000002,11 1.0000002,16.522839 5.4772563,21.000002 11,21.000002 16.522761,21.000002 21.000001,16.522839 21.000001,11 21.000001,5.477159 16.522761,1.000002 11,1.000002 Z m 0,1.25 c 4.832431,0 8.750001,3.917496 8.750001,8.749998 0,4.832474 -3.91757,8.750002 -8.750001,8.750002 C 6.1675563,19.750002 2.2500003,15.832474 2.2500003,11 2.2500003,6.167498 6.1675563,2.250002 11,2.250002 Z m 0,0 z"
       sodipodi:nodetypes="ssssssssssccccc" />
  </g>
  <g
     id="inactive-center"
     transform="translate(0,-0.15999998)">
    <rect
       id="rect4266-91"
       width="22"
       height="22"
       x="-26"
       y="36.16"
       style="opacity:0.00100002;fill:#000000;fill-opacity:1;fill-rule:nonzero;stroke:none;stroke-width:2;stroke-linecap:round;stroke-linejoin:round;stroke-miterlimit:4;stroke-dasharray:none;stroke-opacity:1" />
    <path
       id="path839-3-36-4"
       style="opacity:0.01;fill:#2b4254;fill-opacity:0.01;stroke-width:1.125;enable-background:new"
       d="m -15,38.16 c -4.97047,0 -9,4.029441 -9,8.999998 0,4.970559 4.02953,9.000002 9,9.000002 4.970481,0 9.000001,-4.029443 9.000001,-9.000002 C -5.999999,42.189441 -10.029519,38.16 -15,38.16 Z m 0,1.125 c 4.349191,0 7.875001,3.525746 7.875001,7.874998 0,4.349234 -3.52581,7.875002 -7.875001,7.875002 -4.3492,0 -7.875,-3.525768 -7.875,-7.875002 0,-4.349252 3.5258,-7.874998 7.875,-7.874998 z m 0,0 z"
       sodipodi:nodetypes="ssssssssssccccc" />
    <rect
       style="opacity:0.01;fill:#4e5a7e;fill-opacity:0.01;stroke:none;stroke-width:0.39374;enable-background:new"
       id="center-3-35-5-7-91"
       width="15.749992"
       height="15.749992"
       x="-22.874998"
       y="39.285"
       ry="7.8749838"
       rx="7.8749838" />
    <path
       id="path4-3-3-5-2-3-0"
       style="fill:#a6a6a6;fill-opacity:0.987685;stroke-width:0.160926;enable-background:new"
       d="m -15.00626,40.649117 a 0.48278834,0.48278835 0 0 0 -0.339844,0.140625 l -6.001953,6.001953 a 0.48278834,0.48278835 0 0 0 -0.0098,0.0078 l -0.02344,0.02539 a 0.48278834,0.48278835 0 0 0 -0.04297,0.05273 0.48278834,0.48278835 0 0 0 -0.02539,0.04102 0.48278834,0.48278835 0 0 0 -0.01758,0.03711 0.48278834,0.48278835 0 0 0 -0.0078,0.01563 0.48278834,0.48278835 0 0 0 -0.01172,0.0293 0.48278834,0.48278835 0 0 0 -0.01367,0.05469 0.48278834,0.48278835 0 0 0 -0.002,0.0098 0.48278834,0.48278835 0 0 0 -0.0078,0.0625 0.48278834,0.48278835 0 0 0 0,0.05078 0.48278834,0.48278835 0 0 0 0.002,0.02734 0.48278834,0.48278835 0 0 0 0.0078,0.04492 0.48278834,0.48278835 0 0 0 0.002,0.01367 0.48278834,0.48278835 0 0 0 0.002,0.0078 0.48278834,0.48278835 0 0 0 0.01758,0.05469 0.48278834,0.48278835 0 0 0 0.01367,0.03125 0.48278834,0.48278835 0 0 0 0.01758,0.0332 0.48278834,0.48278835 0 0 0 0.0332,0.05273 0.48278834,0.48278835 0 0 0 0.002,0.002 0.48278834,0.48278835 0 0 0 0.04297,0.04883 l 6.035156,6.035156 a 0.48278834,0.48278835 0 0 0 0.681641,0 l 6.0097653,-6.011719 a 0.48278834,0.48278835 0 0 0 0.013672,-0.693359 l -6.0351563,-6.035156 a 0.48278834,0.48278835 0 0 0 -0.341797,-0.140625 z m 0,1.164062 5.3535157,5.353516 -5.3417967,5.339843 -5.353516,-5.351562 z" />
  </g>
  <g
     id="pressed-inactive-center">
    <rect
       id="rect4266-3-6-8"
       width="22"
       height="22"
       x="27"
       y="36"
       style="opacity:0.00100002;fill:#000000;fill-opacity:1;fill-rule:nonzero;stroke:none;stroke-width:2;stroke-linecap:round;stroke-linejoin:round;stroke-miterlimit:4;stroke-dasharray:none;stroke-opacity:1" />
    <rect
       style="fill:#00cccc;fill-opacity:1;stroke:none;stroke-width:0.44999;enable-background:new"
       id="center-3-35-5-7-2-7"
       width="18"
       height="18"
       x="29.16"
       y="38.16"
       ry="8.9999819"
       rx="8.9999819" />
    <path
       id="path4-3-3-5-2-3-9-0"
       style="fill:#000000;fill-opacity:1;stroke-width:0.160926;enable-background:new"
       d="m 38.153528,40.647684 a 0.48278834,0.48278835 0 0 0 -0.341796,0.142578 l -6,6.001953 a 0.48278834,0.48278835 0 0 0 -0.0098,0.0078 l -0.02344,0.02539 a 0.48278834,0.48278835 0 0 0 -0.03711,0.04492 0.48278834,0.48278835 0 0 0 -0.01172,0.01367 0.48278834,0.48278835 0 0 0 -0.01953,0.03516 0.48278834,0.48278835 0 0 0 -0.01563,0.02734 0.48278834,0.48278835 0 0 0 -0.0039,0.0098 0.48278834,0.48278835 0 0 0 -0.01563,0.04102 0.48278834,0.48278835 0 0 0 -0.01563,0.06055 0.48278834,0.48278835 0 0 0 -0.002,0.0059 0.48278834,0.48278835 0 0 0 -0.0078,0.06445 0.48278834,0.48278835 0 0 0 0,0.05078 0.48278834,0.48278835 0 0 0 0.002,0.02734 0.48278834,0.48278835 0 0 0 0.0078,0.04492 0.48278834,0.48278835 0 0 0 0.002,0.01367 0.48278834,0.48278835 0 0 0 0.002,0.0078 0.48278834,0.48278835 0 0 0 0.01758,0.05469 0.48278834,0.48278835 0 0 0 0.01367,0.03125 0.48278834,0.48278835 0 0 0 0.01758,0.0332 0.48278834,0.48278835 0 0 0 0.0332,0.05273 0.48278834,0.48278835 0 0 0 0.002,0.002 0.48278834,0.48278835 0 0 0 0.04297,0.04883 l 6.033203,6.035156 a 0.48278834,0.48278835 0 0 0 0.683594,0 l 6.009766,-6.011719 a 0.48278834,0.48278835 0 0 0 0.152343,-0.396484 0.48278834,0.48278835 0 0 0 -0.0098,-0.06445 0.48278834,0.48278835 0 0 0 0,-0.002 0.48278834,0.48278835 0 0 0 -0.01953,-0.0625 0.48278834,0.48278835 0 0 0 -0.002,-0.002 0.48278834,0.48278835 0 0 0 -0.01367,-0.03125 0.48278834,0.48278835 0 0 0 -0.01367,-0.0293 0.48278834,0.48278835 0 0 0 -0.03711,-0.05469 0.48278834,0.48278835 0 0 0 0,-0.002 0.48278834,0.48278835 0 0 0 -0.04297,-0.04883 l -0.002,-0.002 -6.033203,-6.033203 a 0.48278834,0.48278835 0 0 0 -0.341797,-0.142578 z m 0,1.166015 5.351563,5.351563 -5.339844,5.341797 -5.351562,-5.353516 z" />
    <path
       id="path839-3-36-6-9-8"
       style="fill:#009999;fill-opacity:1;stroke-width:1.25;enable-background:new"
       d="m 38.16,37.16 c -5.522744,0 -10,4.477157 -10,9.999998 0,5.522839 4.477256,10.000002 10,10.000002 5.522761,0 10.000001,-4.477163 10.000001,-10.000002 C 48.160001,41.637157 43.682761,37.16 38.16,37.16 Z m 0,1.25 c 4.832431,0 8.750001,3.917496 8.750001,8.749998 0,4.832477 -3.91757,8.750002 -8.750001,8.750002 -4.832444,0 -8.75,-3.917525 -8.75,-8.750002 0,-4.832502 3.917556,-8.749998 8.75,-8.749998 z m 0,0 z"
       sodipodi:nodetypes="ssssssssssccccc" />
  </g>
  <g
     id="hover-inactive-center">
    <rect
       style="opacity:0.00100002;fill:#000000;fill-opacity:1;fill-rule:nonzero;stroke:none;stroke-width:2;stroke-linecap:round;stroke-linejoin:round;stroke-miterlimit:4;stroke-dasharray:none;stroke-opacity:1"
       y="36"
       x="-2e-07"
       height="22"
       width="22"
       id="rect4266-3-4" />
    <rect
       style="fill:#00b2b2;fill-opacity:1;stroke:none;stroke-width:0.44999;enable-background:new"
       id="center-3-35-5-7-5-2"
       width="18"
       height="18"
       x="1.9999998"
       y="38.16"
       ry="8.9999809"
       rx="8.9999809" />
    <path
       id="path4-3-3-5-2-3-3-9"
       style="fill:#000000;fill-opacity:1;stroke-width:0.160926;enable-background:new"
       d="m 10.993223,40.648174 a 0.48278834,0.48278835 0 0 0 -0.339844,0.142578 l -6.0019528,6.001953 a 0.48278834,0.48278835 0 0 0 -0.00977,0.0078 l -0.023437,0.02539 a 0.48278834,0.48278835 0 0 0 0.011719,0.669922 l 6.0351561,6.035156 a 0.48278834,0.48278835 0 0 0 0.681641,0 l 6.009765,-6.011719 a 0.48278834,0.48278835 0 0 0 0.02539,-0.02344 0.48278834,0.48278835 0 0 0 0.07617,-0.111328 0.48278834,0.48278835 0 0 0 0.02734,-0.0625 0.48278834,0.48278835 0 0 0 0.01758,-0.06445 0.48278834,0.48278835 0 0 0 0.0078,-0.06836 0.48278834,0.48278835 0 0 0 -0.002,-0.06445 0.48278834,0.48278835 0 0 0 0,-0.002 0.48278834,0.48278835 0 0 0 -0.002,-0.0098 0.48278834,0.48278835 0 0 0 -0.0293,-0.121093 0.48278834,0.48278835 0 0 0 -0.02734,-0.05859 0.48278834,0.48278835 0 0 0 -0.002,-0.0039 0.48278834,0.48278835 0 0 0 -0.03516,-0.05273 0.48278834,0.48278835 0 0 0 -0.002,-0.0039 0.48278834,0.48278835 0 0 0 -0.04102,-0.04687 l -0.0039,-0.0039 -6.03125,-6.03125 a 0.48278834,0.48278835 0 0 0 -0.341797,-0.142578 z m 0,1.166015 5.351563,5.351563 -5.339844,5.341797 -5.3515626,-5.353516 z" />
    <path
       id="path839-3-36-7-6-1"
       style="mix-blend-mode:normal;fill:#006666;fill-opacity:1;stroke-width:1.25;enable-background:new"
       d="m 11,37.160002 c -5.5227439,0 -10,4.477157 -10,9.999998 0,5.522839 4.4772561,10.000002 10,10.000002 5.522761,0 10.000001,-4.477163 10.000001,-10.000002 0,-5.522841 -4.47724,-9.999998 -10.000001,-9.999998 z m 0,1.25 c 4.832431,0 8.750001,3.917496 8.750001,8.749998 0,4.832474 -3.91757,8.750002 -8.750001,8.750002 -4.8324439,0 -8.7499999,-3.917528 -8.7499999,-8.750002 0,-4.832502 3.917556,-8.749998 8.7499999,-8.749998 z m 0,0 z"
       sodipodi:nodetypes="ssssssssssccccc" />
  </g>
  <g
     id="deactivated-center"
     transform="translate(27)">
    <rect
       id="rect4266-1"
       width="22"
       height="22"
       x="34"
       y="0"
       style="opacity:0.00100002;fill:#000000;fill-opacity:1;fill-rule:nonzero;stroke:none;stroke-width:2;stroke-linecap:round;stroke-linejoin:round;stroke-miterlimit:4;stroke-dasharray:none;stroke-opacity:1" />
    <path
       id="path839-3-36-49"
       style="opacity:0.01;fill:#2b4254;fill-opacity:0.01;stroke-width:1.125;enable-background:new"
       d="m 45,1.8399999 c -4.97047,0 -9,4.029441 -9,8.9999981 0,4.970559 4.02953,9.000002 9,9.000002 4.970481,0 9.000001,-4.029443 9.000001,-9.000002 0,-4.9705571 -4.02952,-8.9999981 -9.000001,-8.9999981 z m 0,1.125 c 4.349191,0 7.875001,3.525746 7.875001,7.8749981 0,4.349234 -3.52581,7.875002 -7.875001,7.875002 -4.3492,0 -7.875,-3.525768 -7.875,-7.875002 0,-4.3492521 3.5258,-7.8749981 7.875,-7.8749981 z m 0,0 z"
       sodipodi:nodetypes="ssssssssssccccc" />
    <rect
       style="opacity:0.01;fill:#4e5a7e;fill-opacity:0.01;stroke:none;stroke-width:0.39374;enable-background:new"
       id="center-3-35-5-7-20"
       width="15.749992"
       height="15.749992"
       x="37.125"
       y="3.1250002"
       ry="7.8749838"
       rx="7.8749838" />
    <path
       id="path4-3-3-5-2-3-6"
       style="fill:#ffffff;fill-opacity:0.45;stroke-width:0.160926;enable-background:new"
       d="m 44.992856,4.4696146 a 0.48278834,0.48278835 0 0 0 -0.339844,0.140625 l -6.035156,6.0351564 a 0.48278834,0.48278835 0 0 0 -0.128906,0.345703 0.48278834,0.48278835 0 0 0 0,0.02539 0.48278834,0.48278835 0 0 0 0.140625,0.33789 l 6.035156,6.035157 a 0.48278834,0.48278835 0 0 0 0.681641,0 l 6.035156,-6.035157 a 0.48278834,0.48278835 0 0 0 0.128906,-0.33789 0.48278834,0.48278835 0 0 0 -0.140625,-0.371094 L 45.334653,4.6102396 a 0.48278834,0.48278835 0 0 0 -0.341797,-0.140625 z m 0,1.1640624 5.371094,5.371094 -5.359375,5.359375 -5.371094,-5.371094 z" />
  </g>
  <g
     id="deactivated-inactive-center"
     transform="translate(27)">
    <rect
       id="rect4266-91-2"
       width="22"
       height="22"
       x="34"
       y="35.84"
       style="opacity:0.00100002;fill:#000000;fill-opacity:1;fill-rule:nonzero;stroke:none;stroke-width:2;stroke-linecap:round;stroke-linejoin:round;stroke-miterlimit:4;stroke-dasharray:none;stroke-opacity:1" />
    <path
       id="path839-3-36-4-6"
       style="opacity:0.01;fill:#2b4254;fill-opacity:0.01;stroke-width:1.125;enable-background:new"
       d="m 45,37.84 c -4.97047,0 -9,4.029441 -9,8.999998 0,4.970559 4.02953,9.000002 9,9.000002 4.970481,0 9.000001,-4.029443 9.000001,-9.000002 C 54.000001,41.869441 49.970481,37.84 45,37.84 Z m 0,1.125 c 4.349191,0 7.875001,3.525746 7.875001,7.874998 0,4.349234 -3.52581,7.875002 -7.875001,7.875002 -4.3492,0 -7.875,-3.525768 -7.875,-7.875002 C 37.125,42.490746 40.6508,38.965 45,38.965 Z m 0,0 z"
       sodipodi:nodetypes="ssssssssssccccc" />
    <rect
       style="opacity:0.01;fill:#4e5a7e;fill-opacity:0.01;stroke:none;stroke-width:0.39374;enable-background:new"
       id="center-3-35-5-7-91-6"
       width="15.749992"
       height="15.749992"
       x="37.125"
       y="38.965"
       ry="7.8749838"
       rx="7.8749838" />
    <path
       id="path4-3-3-5-2-3-0-4"
       style="fill:#a6a6a6;fill-opacity:0.450739;stroke-width:0.160926;enable-background:new"
       d="m 44.993167,40.329149 a 0.48278834,0.48278835 0 0 0 -0.339844,0.140625 l -6.001953,6.001954 a 0.48278834,0.48278835 0 0 0 -0.0098,0.0078 l -0.02344,0.02539 a 0.48278834,0.48278835 0 0 0 0.01172,0.669921 l 6.035156,6.035157 a 0.48278834,0.48278835 0 0 0 0.681641,0 l 6.009765,-6.011719 a 0.48278834,0.48278835 0 0 0 0.02539,-0.02344 0.48278834,0.48278835 0 0 0 0.0625,-0.08984 0.48278834,0.48278835 0 0 0 0.01367,-0.01953 0.48278834,0.48278835 0 0 0 0,-0.002 0.48278834,0.48278835 0 0 0 0.02734,-0.06055 0.48278834,0.48278835 0 0 0 0,-0.002 0.48278834,0.48278835 0 0 0 0.01758,-0.0625 0.48278834,0.48278835 0 0 0 0,-0.002 0.48278834,0.48278835 0 0 0 0.0078,-0.06641 0.48278834,0.48278835 0 0 0 -0.002,-0.06836 0.48278834,0.48278835 0 0 0 -0.002,-0.0098 0.48278834,0.48278835 0 0 0 -0.0293,-0.121094 0.48278834,0.48278835 0 0 0 -0.02734,-0.05859 0.48278834,0.48278835 0 0 0 -0.002,-0.0039 0.48278834,0.48278835 0 0 0 -0.03516,-0.05273 0.48278834,0.48278835 0 0 0 -0.002,-0.0039 0.48278834,0.48278835 0 0 0 -0.04102,-0.04687 l -0.0039,-0.0039 -6.03125,-6.03125 a 0.48278834,0.48278835 0 0 0 -0.341797,-0.140625 z m 0,1.164063 5.353516,5.353516 -5.341797,5.339843 -5.353516,-5.351562 z" />
  </g>
</svg>
